# xmcd
#
# Track frame offsets: 
#        150
#        20385
#        48570
#        64575
#        91005
#        134025
#        149926
#        192916
#        228916
#        244921
#        273016
#        292711
#        305536
#
# Disc length: 4582 seconds
#
# Revision: 0
# Processed by: cddbd v1.5.2PL0 Copyright (c) Steve Scherf et al.
# Submitted via: ExactAudioCopy v0.99pb3
#
DISCID=b911e40d
DTITLE=Henry Gray and IBC Albert King Award Winners - Blues Cures Studio
DTITLE=Jam
DYEAR=2009
DGENRE=Blues
TTITLE0=Side Tracked
TTITLE1=Love Me Baby
TTITLE2=Cold Chills
TTITLE3=Crosscut Saw
TTITLE4=Johnny Cheat
TTITLE5=Come On In
TTITLE6=Use What You Got
TTITLE7=Comin' Home To You
TTITLE8=Times Are Getting Hard
TTITLE9=Wait On Time
TTITLE10=Ain't My Problem
TTITLE11=How Could You Do It
TTITLE12=Whoa Baby
EXTD=
EXTT0=
EXTT1=
EXTT2=
EXTT3=
EXTT4=
EXTT5=
EXTT6=
EXTT7=
EXTT8=
EXTT9=
EXTT10=
EXTT11=
EXTT12=
PLAYORDER=
